<svg id="visual" viewBox="0 0 960 540" width="960" height="540" xmlns="http://www.w3.org/2000/svg" xmlns:xlink="http://www.w3.org/1999/xlink" version="1.1"><rect x="0" y="0" width="960" height="540" fill="#000000"></rect><path d="M0 435L8.8 434.2C17.7 433.3 35.3 431.7 53.2 430.7C71 429.7 89 429.3 106.8 433.8C124.7 438.3 142.3 447.7 160 448.5C177.7 449.3 195.3 441.7 213.2 441.3C231 441 249 448 266.8 444.3C284.7 440.7 302.3 426.3 320 423.5C337.7 420.7 355.3 429.3 373.2 435.2C391 441 409 444 426.8 441.7C444.7 439.3 462.3 431.7 480 430.5C497.7 429.3 515.3 434.7 533.2 434.3C551 434 569 428 586.8 424.2C604.7 420.3 622.3 418.7 640 419.8C657.7 421 675.3 425 693.2 431.7C711 438.3 729 447.7 746.8 447.2C764.7 446.7 782.3 436.3 800 430.5C817.7 424.7 835.3 423.3 853.2 423.7C871 424 889 426 906.8 431.5C924.7 437 942.3 446 951.2 450.5L960 455L960 541L951.2 541C942.3 541 924.7 541 906.8 541C889 541 871 541 853.2 541C835.3 541 817.7 541 800 541C782.3 541 764.7 541 746.8 541C729 541 711 541 693.2 541C675.3 541 657.7 541 640 541C622.3 541 604.7 541 586.8 541C569 541 551 541 533.2 541C515.3 541 497.7 541 480 541C462.3 541 444.7 541 426.8 541C409 541 391 541 373.2 541C355.3 541 337.7 541 320 541C302.3 541 284.7 541 266.8 541C249 541 231 541 213.2 541C195.3 541 177.7 541 160 541C142.3 541 124.7 541 106.8 541C89 541 71 541 53.2 541C35.3 541 17.7 541 8.8 541L0 541Z" fill="#fcaf3c"></path><path d="M0 451L8.8 448.7C17.7 446.3 35.3 441.7 53.2 441.7C71 441.7 89 446.3 106.8 446.2C124.7 446 142.3 441 160 442.7C177.7 444.3 195.3 452.7 213.2 456C231 459.3 249 457.7 266.8 458.2C284.7 458.7 302.3 461.3 320 459C337.7 456.7 355.3 449.3 373.2 450.2C391 451 409 460 426.8 460.2C444.7 460.3 462.3 451.7 480 449.8C497.7 448 515.3 453 533.2 451.7C551 450.3 569 442.7 586.8 441.7C604.7 440.7 622.3 446.3 640 446.5C657.7 446.7 675.3 441.3 693.2 440.5C711 439.7 729 443.3 746.8 444C764.7 444.7 782.3 442.3 800 441.7C817.7 441 835.3 442 853.2 444.2C871 446.3 889 449.7 906.8 447.8C924.7 446 942.3 439 951.2 435.5L960 432L960 541L951.2 541C942.3 541 924.7 541 906.8 541C889 541 871 541 853.2 541C835.3 541 817.7 541 800 541C782.3 541 764.7 541 746.8 541C729 541 711 541 693.2 541C675.3 541 657.7 541 640 541C622.3 541 604.7 541 586.8 541C569 541 551 541 533.2 541C515.3 541 497.7 541 480 541C462.3 541 444.7 541 426.8 541C409 541 391 541 373.2 541C355.3 541 337.7 541 320 541C302.3 541 284.7 541 266.8 541C249 541 231 541 213.2 541C195.3 541 177.7 541 160 541C142.3 541 124.7 541 106.8 541C89 541 71 541 53.2 541C35.3 541 17.7 541 8.8 541L0 541Z" fill="#fc923f"></path><path d="M0 459L8.8 459.2C17.7 459.3 35.3 459.7 53.2 460.7C71 461.7 89 463.3 106.8 466.3C124.7 469.3 142.3 473.7 160 474.8C177.7 476 195.3 474 213.2 471.7C231 469.3 249 466.7 266.8 467.5C284.7 468.3 302.3 472.7 320 474C337.7 475.3 355.3 473.7 373.2 473.2C391 472.7 409 473.3 426.8 473C444.7 472.7 462.3 471.3 480 468.5C497.7 465.7 515.3 461.3 533.2 460.2C551 459 569 461 586.8 460.2C604.7 459.3 622.3 455.7 640 457.5C657.7 459.3 675.3 466.7 693.2 467C711 467.3 729 460.7 746.8 457.3C764.7 454 782.3 454 800 454.2C817.7 454.3 835.3 454.7 853.2 457.3C871 460 889 465 906.8 464.3C924.7 463.7 942.3 457.3 951.2 454.2L960 451L960 541L951.2 541C942.3 541 924.7 541 906.8 541C889 541 871 541 853.2 541C835.3 541 817.7 541 800 541C782.3 541 764.7 541 746.8 541C729 541 711 541 693.2 541C675.3 541 657.7 541 640 541C622.3 541 604.7 541 586.8 541C569 541 551 541 533.2 541C515.3 541 497.7 541 480 541C462.3 541 444.7 541 426.8 541C409 541 391 541 373.2 541C355.3 541 337.7 541 320 541C302.3 541 284.7 541 266.8 541C249 541 231 541 213.2 541C195.3 541 177.7 541 160 541C142.3 541 124.7 541 106.8 541C89 541 71 541 53.2 541C35.3 541 17.7 541 8.8 541L0 541Z" fill="#f87447"></path><path d="M0 486L8.8 485.7C17.7 485.3 35.3 484.7 53.2 484.7C71 484.7 89 485.3 106.8 483.3C124.7 481.3 142.3 476.7 160 476.8C177.7 477 195.3 482 213.2 481.5C231 481 249 475 266.8 476C284.7 477 302.3 485 320 489.7C337.7 494.3 355.3 495.7 373.2 496.5C391 497.3 409 497.7 426.8 495C444.7 492.3 462.3 486.7 480 482.8C497.7 479 515.3 477 533.2 475.7C551 474.3 569 473.7 586.8 475.8C604.7 478 622.3 483 640 486.5C657.7 490 675.3 492 693.2 492.7C711 493.3 729 492.7 746.8 492.5C764.7 492.3 782.3 492.7 800 491.8C817.7 491 835.3 489 853.2 486.8C871 484.7 889 482.3 906.8 482.5C924.7 482.7 942.3 485.3 951.2 486.7L960 488L960 541L951.2 541C942.3 541 924.7 541 906.8 541C889 541 871 541 853.2 541C835.3 541 817.7 541 800 541C782.3 541 764.7 541 746.8 541C729 541 711 541 693.2 541C675.3 541 657.7 541 640 541C622.3 541 604.7 541 586.8 541C569 541 551 541 533.2 541C515.3 541 497.7 541 480 541C462.3 541 444.7 541 426.8 541C409 541 391 541 373.2 541C355.3 541 337.7 541 320 541C302.3 541 284.7 541 266.8 541C249 541 231 541 213.2 541C195.3 541 177.7 541 160 541C142.3 541 124.7 541 106.8 541C89 541 71 541 53.2 541C35.3 541 17.7 541 8.8 541L0 541Z" fill="#ed5852"></path><path d="M0 497L8.8 497.5C17.7 498 35.3 499 53.2 498.2C71 497.3 89 494.7 106.8 496C124.7 497.3 142.3 502.7 160 502.3C177.7 502 195.3 496 213.2 496.3C231 496.7 249 503.3 266.8 504.7C284.7 506 302.3 502 320 500.2C337.7 498.3 355.3 498.7 373.2 499.7C391 500.7 409 502.3 426.8 503.2C444.7 504 462.3 504 480 501.7C497.7 499.3 515.3 494.7 533.2 495.5C551 496.3 569 502.7 586.8 504.7C604.7 506.7 622.3 504.3 640 502.5C657.7 500.7 675.3 499.3 693.2 499.2C711 499 729 500 746.8 500.5C764.7 501 782.3 501 800 502.5C817.7 504 835.3 507 853.2 505.8C871 504.7 889 499.3 906.8 498.7C924.7 498 942.3 502 951.2 504L960 506L960 541L951.2 541C942.3 541 924.7 541 906.8 541C889 541 871 541 853.2 541C835.3 541 817.7 541 800 541C782.3 541 764.7 541 746.8 541C729 541 711 541 693.2 541C675.3 541 657.7 541 640 541C622.3 541 604.7 541 586.8 541C569 541 551 541 533.2 541C515.3 541 497.7 541 480 541C462.3 541 444.7 541 426.8 541C409 541 391 541 373.2 541C355.3 541 337.7 541 320 541C302.3 541 284.7 541 266.8 541C249 541 231 541 213.2 541C195.3 541 177.7 541 160 541C142.3 541 124.7 541 106.8 541C89 541 71 541 53.2 541C35.3 541 17.7 541 8.8 541L0 541Z" fill="#dd3c5d"></path><path d="M0 514L8.8 515.7C17.7 517.3 35.3 520.7 53.2 521C71 521.3 89 518.7 106.8 516.8C124.7 515 142.3 514 160 514.3C177.7 514.7 195.3 516.3 213.2 516.7C231 517 249 516 266.8 516.7C284.7 517.3 302.3 519.7 320 519C337.7 518.3 355.3 514.7 373.2 512.3C391 510 409 509 426.8 509.3C444.7 509.7 462.3 511.3 480 513.3C497.7 515.3 515.3 517.7 533.2 517.3C551 517 569 514 586.8 512.3C604.7 510.7 622.3 510.3 640 512.3C657.7 514.3 675.3 518.7 693.2 518.7C711 518.7 729 514.3 746.8 513.2C764.7 512 782.3 514 800 515C817.7 516 835.3 516 853.2 514.8C871 513.7 889 511.3 906.8 510.5C924.7 509.7 942.3 510.3 951.2 510.7L960 511L960 541L951.2 541C942.3 541 924.7 541 906.8 541C889 541 871 541 853.2 541C835.3 541 817.7 541 800 541C782.3 541 764.7 541 746.8 541C729 541 711 541 693.2 541C675.3 541 657.7 541 640 541C622.3 541 604.7 541 586.8 541C569 541 551 541 533.2 541C515.3 541 497.7 541 480 541C462.3 541 444.7 541 426.8 541C409 541 391 541 373.2 541C355.3 541 337.7 541 320 541C302.3 541 284.7 541 266.8 541C249 541 231 541 213.2 541C195.3 541 177.7 541 160 541C142.3 541 124.7 541 106.8 541C89 541 71 541 53.2 541C35.3 541 17.7 541 8.8 541L0 541Z" fill="#c62368"></path></svg>