<svg xmlns="http://www.w3.org/2000/svg" version="1.1" xmlns:xlink="http://www.w3.org/1999/xlink" xmlns:svgjs="http://svgjs.dev/svgjs" viewBox="0 0 800 800"><defs><linearGradient x1="50%" y1="0%" x2="50%" y2="100%" id="nnneon-grad"><stop stop-color="hsl(162, 100%, 58%)" stop-opacity="1" offset="0%"></stop><stop stop-color="hsl(270, 73%, 53%)" stop-opacity="1" offset="100%"></stop></linearGradient><filter id="nnneon-filter" x="-100%" y="-100%" width="400%" height="400%" filterUnits="objectBoundingBox" primitiveUnits="userSpaceOnUse" color-interpolation-filters="sRGB">
	<feGaussianBlur stdDeviation="17 8" x="0%" y="0%" width="100%" height="100%" in="SourceGraphic" edgeMode="none" result="blur"></feGaussianBlur></filter><filter id="nnneon-filter2" x="-100%" y="-100%" width="400%" height="400%" filterUnits="objectBoundingBox" primitiveUnits="userSpaceOnUse" color-interpolation-filters="sRGB">
	<feGaussianBlur stdDeviation="10 17" x="0%" y="0%" width="100%" height="100%" in="SourceGraphic" edgeMode="none" result="blur"></feGaussianBlur></filter></defs><g stroke-width="16" stroke="url(#nnneon-grad)" fill="none"><path d="M400.00001525878906 106.12911987304688L654.5000315211748 253.06455850218015V546.9354357604468L400.00001525878906 693.8708743895801L145.4999989964033 546.9354357604468V253.06455850218015L400.00001525878906 106.12911987304688Z " filter="url(#nnneon-filter)"></path><path d="M412.00001525878906 106.12911987304688L666.5000315211748 253.06455850218015V546.9354357604468L412.00001525878906 693.8708743895801L157.4999989964033 546.9354357604468V253.06455850218015L412.00001525878906 106.12911987304688Z " filter="url(#nnneon-filter2)" opacity="0.25"></path><path d="M388.00001525878906 106.12911987304688L642.5000315211748 253.06455850218015V546.9354357604468L388.00001525878906 693.8708743895801L133.4999989964033 546.9354357604468V253.06455850218015L388.00001525878906 106.12911987304688Z " filter="url(#nnneon-filter2)" opacity="0.25"></path><path d="M400.00001525878906 106.12911987304688L654.5000315211748 253.06455850218015V546.9354357604468L400.00001525878906 693.8708743895801L145.4999989964033 546.9354357604468V253.06455850218015L400.00001525878906 106.12911987304688Z "></path></g></svg>